<svg xmlns="http://www.w3.org/2000/svg" xmlns:xlink="http://www.w3.org/1999/xlink" xmlns:a="http://ns.adobe.com/AdobeSVGViewerExtensions/3.0/" version="1.1" x="0px" y="0px" viewBox="0 0 100 100" overflow="visible" enable-background="new 0 0 100 100" xml:space="preserve"><path d="M0,0v65h21.263c-1.801-2-3.219-3-4.153-4H4V4h92v57h-2.586c0.121,0,0.233,0.94,0.339,1.449  C93.94,63.354,94.099,64,94.237,65H100V0H0z"></path><path d="M89.674,63.087c-0.794-3.827-2.058-7.825-4.098-12.87l-0.057-0.159l-0.065-0.145c-1.989-4.056-4.476-6.858-7.823-8.78  c-1.936-1.111-4.172-1.924-6.748-2.438c0.414-0.339,0.814-0.702,1.197-1.085c1.465-1.466,2.615-3.175,3.418-5.078  c0.834-1.972,1.256-4.065,1.256-6.22c0-2.155-0.422-4.249-1.256-6.22c-0.804-1.903-1.954-3.61-3.419-5.076  c-1.464-1.465-3.171-2.616-5.072-3.42c-1.97-0.833-4.06-1.256-6.212-1.256c-2.156,0-4.25,0.422-6.225,1.254  c-1.905,0.803-3.616,1.953-5.085,3.417c-1.47,1.465-2.625,3.173-3.432,5.076c-0.837,1.973-1.262,4.068-1.262,6.225  c0,2.157,0.424,4.251,1.262,6.225c0.807,1.903,1.961,3.611,3.431,5.077c0.583,0.582,1.206,1.113,1.863,1.594  c-1.701,0.488-3.235,1.126-4.616,1.918c-3.354,1.922-5.842,4.713-7.831,8.771l-0.005,0.013l-0.004,0.011l-1.469,3.036l-9.618-7.069  c-1.198-0.931-2.69-1.442-4.215-1.442c-2.165,0-4.164,0.982-5.483,2.695c-1.13,1.466-1.626,3.283-1.396,5.115  c0.215,1.705,1.04,3.328,2.333,4.456C20.12,57.841,25.906,64,33.771,71h-2.592h-5.144l1.068,4.953l4.412,20.766L32.215,100h3.375  h18.112h14.549h18.463h3.476l0.623-3.439L94.6,75.845L95.495,71H90.78C90.523,68,90.229,65.766,89.674,63.087z M48.958,26.313  c0-6.526,5.304-11.805,11.837-11.805c6.51,0,11.793,5.268,11.793,11.794c0,6-4.467,10.697-10.246,11.697h-1.291  c-0.543,0-1.074,0.019-1.596,0.036C53.553,37.372,48.958,32.386,48.958,26.313z M49.131,59.748c0,0-4.044,6.69-5.244,8.491  c-0.653,0.979-1.627,1.285-2.637,1.285c-2.019,0-4.177-1.316-4.177-1.316C28.28,60.346,21.9,53.591,21.9,53.591  c-1.216-0.954-1.434-2.685-0.493-3.905c0.544-0.706,1.362-1.072,2.182-1.072c0.598,0,1.197,0.193,1.691,0.591L38.99,59.282  l3.652-7.558c2.746-5.601,6.908-9.136,16.667-9.504c0.491,0.045,0.986-0.025,1.485-0.025C61.399,42.195,62,42,62.594,42h0.722  c11.019,0,15.493,3.793,18.397,9.715C85.213,60.365,86.02,65,86.595,71h-7.952l-3.42-11.168L74.881,71H49.472L49.131,59.748z   M86.714,96H68.251H53.702H35.59l-4.412-21H90.5L86.714,96z"></path></svg>